<svg width="64" height="72" viewBox="0 0 64 72" fill="none" xmlns="http://www.w3.org/2000/svg">
<g opacity="0.8">
<path d="M12.7318 40.5509C12.4165 37.993 12.9654 35.681 12.8252 33.3104C12.107 33.1875 11.4589 33.0939 10.8166 32.971C9.21673 32.6607 7.78033 31.9993 6.52494 30.9457C4.8433 30.8638 3.512 29.9917 2.23326 29.02C1.37492 28.3703 0.627525 27.6094 0.218793 26.5792C-0.17826 25.5783 -0.0673191 24.5716 0.820213 24.0916C1.67855 23.6351 1.98218 22.8976 2.37923 22.1659C3.18502 21.8147 4.07255 21.8674 4.80827 21.2821C5.37465 20.8372 6.07534 21.0713 6.60085 21.6333C6.86944 21.9201 7.08549 22.2654 7.31321 22.5932C7.53509 22.921 7.67523 23.3365 7.96134 23.5882C9.37438 24.8467 9.57875 26.427 9.30432 28.1655C9.27512 28.3586 9.26928 28.5576 9.24593 28.8444C10.3437 29.6756 11.5815 29.9156 13.0355 29.7341C13.1522 29.3361 13.3508 28.9673 13.3566 28.5986C13.4675 23.9043 14.4835 19.3154 14.9098 14.6621C14.9915 13.7958 15.0441 12.9295 15.1901 12.0691C15.3535 11.0857 15.7856 10.6467 16.7841 10.5999C18.5825 10.5121 20.3809 10.5063 22.1794 10.5121C26.8447 10.5355 31.5101 10.5824 36.1755 10.6233C40.1052 10.6585 44.0407 10.6877 47.9703 10.7404C48.3499 10.7463 48.7236 10.916 49.0622 10.9979C49.36 11.8759 49.1965 12.6837 49.0856 13.4621C48.3148 19.1515 47.5149 24.8408 46.7325 30.5302C46.3529 33.3046 45.9909 36.0849 45.6114 38.8593C45.5471 39.31 45.4304 39.749 45.3311 40.2348C44.9983 40.3051 44.7472 40.3928 44.4961 40.4046C41.5007 40.5099 38.4994 40.6504 35.4982 40.6914C31.9656 40.7382 28.4271 40.8318 24.9062 40.6504C21.7006 40.4806 18.5125 40.826 15.3185 40.6504C14.5419 40.6094 13.7478 40.5919 12.7318 40.5509ZM31.2999 36.5941C31.2999 36.559 31.3058 36.5297 31.3058 36.4946C33.5655 36.6 35.8252 36.717 38.0849 36.8107C38.6805 36.8341 39.2877 36.8282 39.8775 36.7697C40.5957 36.6995 41.1562 36.2897 41.3839 35.6166C41.6408 34.8674 41.8277 34.0772 41.9386 33.2929C42.2072 31.3789 42.3649 29.4473 42.6568 27.5392C43.1356 24.4428 43.6903 21.3582 44.1983 18.2676C44.2976 17.6765 44.391 17.0794 44.4027 16.4824C44.4377 14.7674 43.9239 14.2757 42.1605 14.2348C42.0262 14.2289 41.8919 14.2289 41.7635 14.2289C35.4398 14.2465 29.1161 14.2523 22.7925 14.2816C21.9984 14.2875 21.1984 14.3518 20.4043 14.4455C19.908 14.4982 19.546 14.7967 19.4 15.3001C19.289 15.6864 19.1548 16.0668 19.1022 16.459C18.8978 17.9106 18.6876 19.3622 18.5358 20.8197C18.1271 24.6652 17.7125 28.5166 17.368 32.3681C17.1228 35.1132 17.8118 35.8683 20.5386 36.0205C24.1179 36.2371 27.7089 36.4068 31.2999 36.5941ZM3.44193 26.2163C3.34267 25.7539 3.31932 25.3501 3.1675 25.0164C2.91058 24.4487 2.08728 24.2087 1.43915 24.4369C0.96035 24.6067 0.639203 25.1452 0.668398 25.7188C0.703432 26.351 0.995384 26.8543 1.38076 27.3343C2.19822 28.3352 3.2726 29.0025 4.32363 29.7107C5.19364 30.296 6.05782 30.3077 6.92783 29.7166C7.31321 29.4532 7.73946 29.2366 8.07228 28.9205C8.34672 28.6571 8.64451 28.2884 8.69706 27.9372C8.83136 27.0182 8.86639 26.0817 8.41094 25.1979C7.94966 24.3023 7.4767 23.957 6.52494 24.0623C5.86513 24.1384 5.217 24.3023 4.57471 24.4721C4.22436 24.5657 3.96161 24.8642 4.09007 25.2213C4.18933 25.4964 4.45209 25.8359 4.70316 25.9061C5.1878 26.0407 5.72499 25.9998 6.24467 26.029C6.15708 26.8251 6.08701 27.5392 5.98775 28.2474C5.98191 28.3001 5.77754 28.3235 5.54982 28.3937C5.46224 27.8201 5.38049 27.2641 5.30458 26.7665C4.53967 26.4212 3.9149 26.8309 3.26676 26.8602C2.83468 26.8777 2.32084 26.9129 2.15735 26.2163C2.57776 26.2163 2.93394 26.2163 3.44193 26.2163ZM13.0004 30.694C11.7275 30.3838 10.6473 30.2609 9.68385 29.8512C8.59196 29.3888 7.90879 29.7107 7.28985 30.5594C8.97733 32.1105 12.0428 32.9885 13.0004 32.0696C13.0004 31.6774 13.0004 31.1799 13.0004 30.694ZM4.70316 22.0781C4.83746 22.3825 4.88417 22.5756 5.00096 22.7278C5.35714 23.2019 5.71332 23.7287 6.44319 23.4536C6.54246 23.4185 6.65924 23.2663 6.66508 23.1668C6.70011 22.599 6.19212 21.8967 5.53231 21.7386C5.30458 21.6801 5.00095 21.9493 4.70316 22.0781ZM4.66813 23.477C4.28275 23.1258 3.9908 22.7863 3.63462 22.5581C3.36019 22.3825 3.00985 22.4117 2.7938 22.7454C2.52521 23.1668 2.64199 23.7229 3.05656 23.916C3.56455 24.1618 4.04335 24.1326 4.66813 23.477Z" fill="#080D06"/>
<path fill-rule="evenodd" clip-rule="evenodd" d="M3.42872 22.4431C3.51593 22.4571 3.60189 22.4908 3.68146 22.5417C3.92592 22.6984 4.14012 22.9074 4.37504 23.1367C4.4824 23.2415 4.59409 23.3505 4.71496 23.4607C4.38833 23.8034 4.1016 23.9749 3.82974 24.0255C3.93247 24.2665 4.05344 24.4912 4.1902 24.7002C4.27471 24.6036 4.3934 24.5289 4.5278 24.4848C4.51665 24.4661 4.5059 24.447 4.49562 24.4273C4.3953 24.2786 4.75924 24.2331 4.99114 24.3626C5.49732 24.2344 6.00788 24.1206 6.52562 24.0609C7.47738 23.9555 7.95034 24.3009 8.41162 25.1964C8.5296 25.4254 8.61466 25.6578 8.67362 25.8926C8.70041 25.8996 8.73085 25.9109 8.76524 25.9273C9.42715 26.5585 9.00591 26.7766 8.77769 26.5814C8.78615 26.7186 8.78813 26.8561 8.78495 26.9938C10.0225 27.0446 11.1999 26.7822 11.9662 26.2895C12.6383 25.8573 12.3689 25.3789 12.0634 24.8363C11.8488 24.4552 11.6164 24.0424 11.6801 23.5919C11.9876 22.5375 12.6255 22.3331 13.1055 22.1793C13.5187 22.0469 13.8148 21.952 13.6825 21.3848C13.3804 20.0898 10.8219 18.4419 6.53111 19.4228C4.07543 19.9843 3.42531 21.3322 3.42872 22.4431ZM6.2057 26.3922C6.21861 26.2724 6.23177 26.151 6.24534 26.0276C6.09696 26.0192 5.94716 26.0166 5.79755 26.014H5.79753L5.79745 26.014C5.70194 26.0123 5.60652 26.0106 5.51161 26.0075C5.73262 26.1525 5.96506 26.2805 6.2057 26.3922ZM7.86638 23.2663C8.31581 23.7845 8.54051 23.6052 8.54051 23.2663C8.54051 22.9274 7.86638 22.7481 7.86638 23.2663ZM8.54051 24.4274C8.91503 24.4988 9.52926 24.6845 8.98994 24.856C8.31579 25.0702 8.09107 24.6417 8.54051 24.4274ZM8.33284 21.7521C8.78227 22.2703 9.00697 22.091 9.00697 21.7521C9.00697 21.4132 8.33284 21.2339 8.33284 21.7521ZM6.75994 21.6275C6.31051 21.8417 6.31051 22.2703 6.53522 22.2703C6.75994 22.2703 7.43422 21.6275 6.75994 21.6275ZM9.85961 20.2929C9.41192 20.4888 9.16849 20.918 9.60313 20.9429C10.0378 20.9678 10.0853 20.1633 9.85961 20.2929ZM11.0462 22.5935C10.855 22.1394 10.4204 22.1145 10.4073 22.3354C10.3943 22.5562 11.0071 23.2562 11.0462 22.5935ZM10.8285 24.132C10.2768 24.5436 10.4456 24.7748 10.7893 24.7945C11.133 24.8142 11.354 24.1621 10.8285 24.132ZM4.10248 22.7277C4.02514 22.6269 3.97853 22.5082 3.91687 22.351C3.88542 22.2709 3.85005 22.1808 3.80469 22.078C3.90173 22.036 3.99939 21.9791 4.09484 21.9235L4.09484 21.9235C4.2923 21.8085 4.48031 21.699 4.63383 21.7385C5.29364 21.8965 5.80163 22.5989 5.7666 23.1667C5.76076 23.2662 5.64398 23.4184 5.54472 23.4535C4.84323 23.7179 4.48694 23.2416 4.14407 22.7832L4.10248 22.7277Z" fill="#080D06"/>
<path d="M58.7377 44.8412C58.5859 44.8763 58.5158 44.8821 58.4574 44.9055C56.5364 45.6313 56.4079 45.5435 56.0634 43.5066C56.0109 43.2022 55.8941 42.8218 55.6722 42.652C54.6095 41.8209 54.7613 40.7614 55.1525 39.7488C55.4094 39.0874 55.9116 38.508 56.3554 37.9343C56.5948 37.63 56.9509 37.4251 57.2254 37.2027C56.9743 34.7326 56.3203 33.4157 54.7555 32.2801C54.2241 33.8898 54.1716 35.5404 53.8387 37.1325C53.5001 38.7655 53.2724 40.422 52.922 42.0492C52.5717 43.6588 52.3848 45.3153 51.7425 46.9308C51.4856 46.761 51.2871 46.6966 51.182 46.5561C49.8507 44.7182 48.5369 42.8686 47.2114 41.0248C46.8436 40.5156 46.6801 39.9947 46.7618 39.345C47.0655 37.0271 47.2815 34.7034 47.591 32.3855C48.0931 28.5458 48.6362 24.7119 49.1675 20.878C49.4887 18.566 49.804 16.2481 50.1543 13.9361C50.2711 13.1693 50.4871 12.4201 50.6857 11.5714C50.9776 11.7646 51.1878 11.829 51.2813 11.9694C52.7527 14.1937 54.1774 16.453 55.6839 18.6538C56.4196 19.725 56.5889 20.8019 56.3437 22.0604C56.0167 23.7578 55.8182 25.4787 55.5671 27.1878C55.9525 27.5215 56.2444 27.7848 56.548 28.0307C58.9304 29.974 60.3259 32.4908 60.8281 35.5053C60.9332 36.1257 61.2193 36.5881 61.5112 37.1149C62.3462 38.625 63.0702 40.1995 63.7826 41.7799C63.9695 42.1896 64.0103 42.693 63.9986 43.1496C63.9753 44.0568 63.4147 44.5895 62.4688 44.6421C62.0192 44.6656 61.6105 44.566 61.155 44.8821C60.1566 45.5494 60.1215 45.5026 58.7377 44.8412ZM56.875 41.1653C56.875 41.5575 56.8809 41.8853 56.875 42.2072C56.8575 42.8042 56.7991 43.4013 56.8166 43.9983C56.8342 44.5485 57.3071 44.7885 57.8151 44.5309C58.0487 44.4139 58.2414 44.2149 58.4749 44.0861C58.6326 43.9983 58.8253 43.9632 58.9479 43.9163C59.4092 44.2558 59.8179 44.5543 60.2967 44.9055C60.6996 44.3436 61.0207 43.8812 61.3361 43.4364C61.844 43.7232 62.2353 43.9398 62.7433 44.2266C62.971 43.8168 63.2454 43.5125 63.3096 43.1671C63.4498 42.4179 63.1812 41.7272 62.8367 41.06C62.4688 40.3517 62.0484 39.661 61.774 38.9177C61.1726 37.2612 60.7463 36.9042 58.726 37.4368C58.4049 37.5188 58.0896 37.6358 57.7859 37.7646C56.1393 38.4436 55.5087 39.6669 55.824 41.657C56.1685 41.499 56.5013 41.3409 56.875 41.1653ZM60.1099 36.4476C60.3785 35.1833 59.8471 34.1473 59.4734 33.1054C58.329 29.9154 56.005 27.978 52.8286 27.0005C52.0286 26.7547 51.398 27.0005 51.1061 27.5975C50.82 28.1829 50.9659 28.9087 51.579 29.3769C52.0462 29.7398 52.5834 30.0266 53.1264 30.2783C55.427 31.3436 57.0444 32.9884 57.6633 35.517C57.7859 36.0145 57.7976 36.5998 58.4516 36.9042C58.9537 36.7578 59.5143 36.6057 60.1099 36.4476Z" fill="#080D06"/>
<path d="M39.4103 3.58168C38.6221 4.80501 37.4484 5.75909 36.8645 7.27507C37.0514 7.93063 37.8163 8.53937 37.3725 9.55783C34.488 9.89146 31.516 9.71001 28.6315 9.7744C27.7148 8.70911 28.6724 7.93063 28.8067 7.02924C28.0943 5.74738 26.9907 4.77574 26.0623 3.76313C25.4259 3.50559 24.7544 4.09092 24.2756 3.5173C23.9836 3.16611 23.6683 2.7915 23.5282 2.37007C23.2362 1.50379 23.9486 0.461914 24.8887 0.257051C25.7937 0.0580416 26.5995 0.625805 26.7221 1.62085C26.7864 2.14179 26.7338 2.68029 26.7338 3.38267C27.598 4.37772 28.5497 5.47228 29.5541 6.62536C31.7846 5.5952 33.9216 5.98151 36.0996 6.76584C36.7944 5.89371 37.4484 5.0684 38.1082 4.2431C38.6162 3.61095 39.0425 2.99636 38.8089 2.07155C38.6045 1.27551 39.06 0.655071 39.7315 0.227785C40.5197 -0.269739 41.5416 0.0814544 41.8861 0.953585C42.359 2.1535 41.9153 3.04319 40.6365 3.38853C40.2628 3.48803 39.8658 3.51145 39.4103 3.58168ZM41.3606 1.76718C41.3255 1.63841 41.2905 1.44526 41.2321 1.2521C41.127 0.895053 40.8526 0.649218 40.5139 0.70775C40.222 0.754576 39.9358 0.965292 39.7081 1.17015C39.5855 1.28137 39.5563 1.5272 39.5329 1.72036C39.4512 2.35251 39.8015 2.7915 40.3679 2.7915C40.9869 2.79735 41.3722 2.41689 41.3606 1.76718ZM26.039 1.96034C26.0098 1.35746 25.5952 0.900906 25.0697 0.8892C24.5617 0.883347 24.1062 1.4277 24.1588 1.98961C24.2113 2.6159 24.6376 3.07831 25.1339 3.04904C25.6945 3.01977 26.0623 2.58078 26.039 1.96034Z" fill="#080D06"/>
<path d="M12.813 59.2054C13.1867 59.3342 13.8991 59.4103 14.4071 59.7732C15.9135 60.8561 17.3499 62.0267 18.7805 63.2091C19.1191 63.49 19.3761 63.9231 19.5512 64.3387C19.8432 65.0411 19.3352 65.7494 18.5995 65.6791C18.0798 65.6264 17.5484 65.5094 17.0638 65.3162C15.207 64.567 13.5137 63.5251 11.9488 62.2842C11.5518 61.9682 11.2189 61.5116 10.9912 61.0551C10.5767 60.2181 11.0321 59.4454 11.943 59.2874C12.1298 59.2581 12.3342 59.2523 12.813 59.2054Z" fill="#080D06"/>
<path d="M24.4941 26.7856C24.7189 26.7856 24.9878 26.9681 25.0871 27.2959C25.7995 29.602 27.376 30.8663 29.7058 30.96C31.6268 31.0361 33.3552 29.9181 34.0558 28.1036C34.2252 27.6705 34.4429 27.6474 34.6064 27.2142C34.76 27.6593 34.5917 27.4191 34.8311 27.2142C34.6064 28.0714 34.704 28.7709 33.9391 29.6898C32.9114 30.9249 31.5451 31.5453 29.9335 31.6156C28.3102 31.6917 26.9439 31.0829 25.7819 30.0059C24.9436 29.1428 24.7189 28.4999 24.4941 26.7856Z" fill="#080D06"/>
<path d="M32.3266 22.3634C32.4317 22.0708 32.5718 21.7898 32.636 21.4913C32.7528 20.9294 33.0856 20.5489 33.5469 20.2446C35.2344 19.1207 36.7934 19.6183 37.5174 21.5264C37.6342 21.8308 37.7218 22.1469 37.8386 22.4512C37.8503 22.4864 37.9554 22.4922 38.0196 22.5098C38.3174 21.2455 38.0079 20.3968 36.8868 19.5305C35.8066 18.6935 34.6563 18.8281 33.5177 19.39C32.309 19.9812 31.6784 20.8826 32.3266 22.3634Z" fill="#080D06"/>
<path d="M22.2023 22.2287C22.3133 21.9302 22.4242 21.702 22.4826 21.4678C22.833 20.0513 23.8957 19.6065 25.1744 19.5304C26.278 19.4602 27.0954 20.1626 27.6093 21.5029C27.7202 21.7956 27.8487 22.0766 27.9596 22.3341C28.4968 22.2756 28.38 21.9595 28.3625 21.7371C28.1465 19.1909 25.3029 17.9793 22.868 19.5772C22.4651 19.8406 22.2023 20.3967 22.0038 20.8767C21.8462 21.2513 21.6476 21.7312 22.2023 22.2287Z" fill="#080D06"/>
<path d="M23.5625 45.2859C22.8502 45.2976 22.278 45.6781 21.8283 46.1639C21.1043 46.9365 20.316 47.7033 19.808 48.6164C18.4826 51.0045 17.7469 53.5156 19.049 56.3017C19.6562 56.4597 20.281 56.6178 21.0576 56.8168C21.0284 56.1612 20.9934 55.652 20.9817 55.1428C20.9175 52.7429 21.3904 50.5187 23.0721 48.6691C23.6034 48.0838 24.0647 47.4165 24.4851 46.7434C24.6311 46.5093 24.6428 46.0995 24.5493 45.8303C24.3975 45.4323 23.9888 45.2801 23.5625 45.2859Z" fill="#080D06"/>
<path d="M42.9852 57.4428C41.8232 54.1826 40.3985 51.0101 39.511 47.6504C39.3942 47.2055 39.1723 46.7782 38.9271 46.3919C38.5475 45.7949 37.841 45.5081 37.4031 45.7246C36.7842 46.029 36.5973 46.5909 36.6382 47.2289C36.6615 47.6211 36.7491 48.025 36.8834 48.3937C37.7826 50.8989 38.6585 53.4158 39.6278 55.8976C40.2117 57.3843 40.9182 58.8242 41.6422 60.2465C42.0801 61.1128 42.6582 61.1245 43.3706 60.3753C43.5457 60.188 43.6508 59.9363 43.8435 59.6319C43.5165 58.8125 43.2304 58.1335 42.9852 57.4428Z" fill="#080D06"/>
<path d="M43.6495 71.9356C44.2158 69.3485 45.1851 67.1067 46.7208 65.1107C47.0011 64.7478 47.258 64.3264 47.3981 63.8933C47.6258 63.1909 47.7543 62.4241 47.2229 61.7919C46.5339 60.9783 45.8916 60.0535 45.0275 59.4799C44.2158 58.9414 43.8655 58.2566 43.5619 57.443C43.0714 56.1319 42.54 54.8325 42.0612 53.5155C41.6992 52.5146 41.3722 51.4961 41.0686 50.4718C40.9635 50.1265 40.981 49.7519 40.9343 49.307C41.8802 49.2602 42.6743 49.2134 43.4684 49.1782C44.2684 49.1431 45.0683 49.1256 45.8683 49.0963C46.6682 49.067 47.4682 49.0495 48.2681 48.9851C49.0272 48.9207 49.833 49.0436 50.6213 48.6105C49.179 45.8946 47.3339 43.6352 45.4479 41.3174C44.9107 41.3174 44.3852 41.2998 43.8597 41.3232C41.3956 41.4227 38.9315 41.5808 36.4674 41.6276C33.472 41.6803 30.4708 41.6334 27.4695 41.6334C23.534 41.6334 19.5985 41.6393 15.663 41.6568C15.2426 41.6568 14.7229 41.4344 14.3726 42.049C14.466 42.2422 14.5419 42.4939 14.6879 42.6987C15.8674 44.3962 17.041 46.0994 18.2555 47.7676C18.6876 48.3588 18.9037 48.9207 18.5767 49.6114C18.4949 49.7928 18.4365 49.986 18.3723 50.1791C17.8118 51.9176 17.4089 53.6677 18.0512 55.4763C18.2263 55.9621 18.1154 56.3836 17.9169 56.8284C17.7592 57.1738 17.6599 57.5484 17.6016 57.7181C18.1212 58.3151 18.5416 58.7483 18.8978 59.2224C19.0146 59.3804 18.9912 59.6497 19.0672 60.0594C17.7475 59.0936 16.6381 58.239 15.482 57.4606C14.8222 57.0157 14.1215 56.5826 13.3683 56.3602C12.3756 56.0616 11.3772 56.3309 10.5422 56.9572C9.73639 57.5659 9.76558 58.4322 9.97579 59.3394C11.4414 58.4029 11.9844 58.2332 13.0938 58.4732C13.5434 58.5668 14.0397 58.6839 14.4018 58.9473C16.8074 60.6623 19.5693 62.0085 20.6962 65.0288C20.8889 64.9585 21.0407 64.941 21.1166 64.859C21.3385 64.6132 21.5896 64.3674 21.7239 64.0688C22.7107 61.9383 23.1078 59.7258 22.2611 57.4723C21.6305 55.7865 21.432 54.1301 21.9108 52.38C22.6757 49.547 22.8976 49.2836 25.8696 49.266C28.8066 49.2426 31.7378 49.2543 34.6749 49.2602C35.2646 49.2602 35.8602 49.307 36.4966 49.3363C36.6893 49.7402 36.9112 50.0796 37.0222 50.4484C37.9914 53.656 39.3286 56.7113 40.7591 59.7316C41.1854 60.633 41.3138 61.4583 40.9401 62.4182C40.438 63.7118 40.0468 65.0463 39.5913 66.4219C40.3154 67.0306 41.524 67.0072 41.8627 68.09C41.7109 68.1778 41.6408 68.2481 41.6 68.2305C41.2263 68.09 40.8642 67.932 40.4964 67.7798C38.4702 66.9369 37.1506 67.5925 36.2105 69.448C35.8252 70.2089 35.6441 71.0869 35.3639 72H43.7254C43.702 71.9824 43.6786 71.9531 43.6495 71.9356ZM24.4799 46.7492C24.0595 47.4223 23.5982 48.0895 23.0669 48.6749C21.3911 50.5245 20.9123 52.7429 20.9765 55.1485C20.9882 55.6578 21.0232 56.167 21.0524 56.8226C20.2758 56.6235 19.6511 56.4597 19.0438 56.3075C17.7475 53.5155 18.4832 51.0103 19.8029 48.6222C20.3109 47.7091 21.0991 46.9423 21.8232 46.1697C22.2728 45.6897 22.845 45.3093 23.5574 45.2917C23.9836 45.2858 24.3923 45.438 24.5325 45.8361C24.6376 46.0994 24.6201 46.5092 24.4799 46.7492ZM41.6408 60.2525C40.9168 58.8302 40.2103 57.3903 39.6264 55.9036C38.6512 53.4218 37.7812 50.9049 36.882 48.3998C36.7477 48.031 36.6601 47.6271 36.6368 47.235C36.5959 46.6028 36.7886 46.0351 37.4017 45.7307C37.8455 45.5141 38.5461 45.8009 38.9257 46.398C39.1709 46.7843 39.3928 47.2174 39.5096 47.6564C40.403 51.0162 41.8218 54.1828 42.9838 57.4489C43.229 58.1395 43.5152 58.8127 43.8363 59.6438C43.6495 59.9482 43.5443 60.1999 43.3633 60.3872C42.651 61.1305 42.0788 61.1188 41.6408 60.2525Z" fill="#080D06"/>
</g>
</svg>
